<svg id="Layer_2" data-name="Layer 2" xmlns="http://www.w3.org/2000/svg" width="159" height="52.727" viewBox="0 0 159 52.727">
  <g id="Layer_1" data-name="Layer 1" transform="translate(0)">
    <path id="Path_37730" data-name="Path 37730" d="M111.854,67.159a7.876,7.876,0,0,0-1.266-2.868,5.884,5.884,0,0,0-3.033-2.257,9.367,9.367,0,0,0-2.753-.386H97.13v2.063a12.6,12.6,0,0,1,1.544,1.324,9.136,9.136,0,0,1,1.986,2.8l.066.161V64.735h3.433q2.537,0,3.391,1.452a8.307,8.307,0,0,1,.852,4.172,9.125,9.125,0,0,1-.567,3.391,3.706,3.706,0,0,1-3.675,2.594h-3.42V71.135a4.26,4.26,0,0,1-.83,1.136L97.483,74.7l-.353-.351v5.087H104.8a6.411,6.411,0,0,0,5.957-3.32,11.786,11.786,0,0,0,1.427-6.01A13.819,13.819,0,0,0,111.854,67.159Z" transform="translate(-75.702 -48.047)" fill="#fff"/>
    <path id="Path_37731" data-name="Path 37731" d="M59.884,58.48a9.941,9.941,0,0,0-1.191-2.711,14.119,14.119,0,0,0-2.05-2.548q-.278-.278-.582-.543a14.532,14.532,0,0,0-1.741-1.3,7.942,7.942,0,0,0-2.928-1.134,5.868,5.868,0,0,0-3.75.549,9.328,9.328,0,0,0-2.222,1.672L40,57.889,52.575,70.464,58,65.041A6.4,6.4,0,0,0,59.884,58.48Zm-3.671,3.689a4.26,4.26,0,0,1-.83,1.136l-2.427,2.427-.353-.351L44.745,57.52l2.427-2.427q1.8-1.794,3.417-1.37A6.164,6.164,0,0,1,52.6,54.745a12.6,12.6,0,0,1,1.544,1.324,9.136,9.136,0,0,1,1.986,2.8l.066.161A3.741,3.741,0,0,1,56.213,62.169Z" transform="translate(-31.175 -39.081)" fill="#ff931e"/>
    <path id="Path_37732" data-name="Path 37732" d="M23.467,52.451A55.421,55.421,0,0,1,9.729,39.5,51.483,51.483,0,0,1,2.906,26.615,46.134,46.134,0,0,1,0,12.452v-.574L9.279,0H38.5l9.279,11.878v.574a45.962,45.962,0,0,1-2.906,14.164A51.476,51.476,0,0,1,38.052,39.5a55.24,55.24,0,0,1-13.74,12.95l-.421.276ZM3.331,12.99v.082A45.5,45.5,0,0,0,6.038,25.561,48.191,48.191,0,0,0,23.763,48.65l.124.088.124-.088A48.178,48.178,0,0,0,41.756,25.486a45.192,45.192,0,0,0,2.683-12.421v-.082L36.887,3.309H10.894Z" transform="translate(0)" fill="#fff"/>
    <path id="Path_37733" data-name="Path 37733" d="M286.56,63.713a6.308,6.308,0,0,1,3.258,2.427,8.481,8.481,0,0,1,1.366,3.089,14.8,14.8,0,0,1,.364,3.166,12.712,12.712,0,0,1-1.533,6.464,6.918,6.918,0,0,1-6.418,3.567H275.35V63.3H283.6a10.149,10.149,0,0,1,2.963.415Zm-7.329,2.908v12.5h3.691a3.987,3.987,0,0,0,3.951-2.791,9.813,9.813,0,0,0,.611-3.647,8.969,8.969,0,0,0-.916-4.485q-.916-1.562-3.647-1.564Z" transform="translate(-214.603 -49.334)" fill="#ff931e"/>
    <path id="Path_37734" data-name="Path 37734" d="M364.99,66.183h-3.75V62.77h3.75Zm-3.75,1.688h3.75V82.014h-3.75Z" transform="translate(-281.545 -48.922)" fill="#fff"/>
    <path id="Path_37735" data-name="Path 37735" d="M398.407,84.688a4.452,4.452,0,0,1,2.177,2.052V84.7h3.609v13.42a7.509,7.509,0,0,1-.922,4.128q-1.586,2.389-6.074,2.389a8.276,8.276,0,0,1-4.428-1.066,3.924,3.924,0,0,1-1.893-3.183H394.9a1.659,1.659,0,0,0,.507.933,3.118,3.118,0,0,0,2.012.507,2.7,2.7,0,0,0,2.674-1.337,6.769,6.769,0,0,0,.441-2.881V96.7a4.512,4.512,0,0,1-1.143,1.363,4.6,4.6,0,0,1-2.868.843,5.427,5.427,0,0,1-4.355-1.915,7.742,7.742,0,0,1-1.628-5.184,8.713,8.713,0,0,1,1.569-5.295,5.207,5.207,0,0,1,4.445-2.149A4.853,4.853,0,0,1,398.407,84.688Zm1.26,10.148a4.507,4.507,0,0,0,.882-3.122,4.793,4.793,0,0,0-.845-3.062,2.764,2.764,0,0,0-2.261-1.059,2.675,2.675,0,0,0-2.674,1.831,6.518,6.518,0,0,0-.377,2.4,5.491,5.491,0,0,0,.413,2.193,2.693,2.693,0,0,0,2.689,1.791,2.837,2.837,0,0,0,2.173-.98Z" transform="translate(-304.381 -65.752)" fill="#fff"/>
    <path id="Path_37736" data-name="Path 37736" d="M472.06,66.183h-3.75V62.77h3.75Zm-3.75,1.688h3.75V82.014h-3.75Z" transform="translate(-364.993 -48.922)" fill="#fff"/>
    <path id="Path_37737" data-name="Path 37737" d="M514.109,63.713a6.314,6.314,0,0,1,3.261,2.427,8.439,8.439,0,0,1,1.363,3.089,14.8,14.8,0,0,1,.364,3.166,12.726,12.726,0,0,1-1.531,6.464,6.906,6.906,0,0,1-6.418,3.567H502.9V63.3h8.249a10.122,10.122,0,0,1,2.961.415Zm-7.329,2.908v12.5h3.693a3.987,3.987,0,0,0,3.951-2.791,9.814,9.814,0,0,0,.611-3.647,8.969,8.969,0,0,0-.916-4.485q-.916-1.562-3.647-1.564Z" transform="translate(-391.952 -49.334)" fill="#fff"/>
    <path id="Path_37738" data-name="Path 37738" d="M597.242,96.732a7.806,7.806,0,0,1-10.876,0,8.763,8.763,0,0,1,0-10.618,7.723,7.723,0,0,1,10.876-.009,8.251,8.251,0,0,1,1.791,5.295A8.131,8.131,0,0,1,597.242,96.732Zm-2.961-2.043a5.411,5.411,0,0,0,.882-3.281,5.179,5.179,0,0,0-.882-3.272,2.908,2.908,0,0,0-2.482-1.149,2.956,2.956,0,0,0-2.5,1.149,6.523,6.523,0,0,0,0,6.552,3.279,3.279,0,0,0,4.99,0Z" transform="translate(-455.606 -65.367)" fill="#fff"/>
    <path id="Path_37739" data-name="Path 37739" d="M667.449,84.849a5.771,5.771,0,0,1,2.44,2.094,6.971,6.971,0,0,1,1.125,2.925,17.839,17.839,0,0,1,.124,2.806H660.844a3.389,3.389,0,0,0,1.48,2.985,3.75,3.75,0,0,0,2.039.534,2.868,2.868,0,0,0,2.815-1.624h3.777a4.6,4.6,0,0,1-1.37,2.557,6.875,6.875,0,0,1-5.323,2.065,7.722,7.722,0,0,1-4.984-1.741q-2.158-1.741-2.158-5.665a7.66,7.66,0,0,1,1.948-5.637,6.819,6.819,0,0,1,5.059-1.961A8.064,8.064,0,0,1,667.449,84.849Zm-5.533,3.2a3.843,3.843,0,0,0-.986,2.189H667.3A3.078,3.078,0,0,0,666.317,88a3.232,3.232,0,0,0-2.193-.766A2.93,2.93,0,0,0,661.916,88.045Z" transform="translate(-512.149 -65.613)" fill="#fff"/>
  </g>
</svg>
