<svg id="Layer_1" data-name="Layer 1" xmlns="http://www.w3.org/2000/svg" width="210" height="69.64" viewBox="0 0 210 69.64">
  <path id="Path_37750" data-name="Path 37750" d="M116.577,68.927a10.4,10.4,0,0,0-1.673-3.788,7.771,7.771,0,0,0-4.006-2.981,12.372,12.372,0,0,0-3.636-.51H97.13v2.724a16.638,16.638,0,0,1,2.04,1.748,12.066,12.066,0,0,1,2.622,3.7l.087.213v-4.31h4.534q3.351,0,4.479,1.917a10.972,10.972,0,0,1,1.125,5.51,12.051,12.051,0,0,1-.749,4.479,4.895,4.895,0,0,1-4.854,3.427H101.9V74.178a5.627,5.627,0,0,1-1.1,1.5L97.6,78.884l-.466-.463V85.14h10.131a8.467,8.467,0,0,0,7.867-4.385,15.566,15.566,0,0,0,1.885-7.937A18.252,18.252,0,0,0,116.577,68.927Z" transform="translate(-68.828 -43.685)" fill="#4d4d4d"/>
  <path id="Path_37751" data-name="Path 37751" d="M66.262,61.154a13.13,13.13,0,0,0-1.573-3.581,18.648,18.648,0,0,0-2.707-3.365q-.367-.367-.769-.717a19.193,19.193,0,0,0-2.3-1.719,10.49,10.49,0,0,0-3.867-1.5A7.751,7.751,0,0,0,50.093,51a12.32,12.32,0,0,0-2.934,2.209L40,60.373,56.609,76.982l7.162-7.162A8.457,8.457,0,0,0,66.262,61.154Zm-4.849,4.872a5.626,5.626,0,0,1-1.1,1.5l-3.205,3.205-.466-.463L46.268,59.886l3.205-3.205q2.375-2.369,4.513-1.809a8.141,8.141,0,0,1,2.66,1.349,16.639,16.639,0,0,1,2.04,1.748,12.066,12.066,0,0,1,2.622,3.7l.087.213a4.941,4.941,0,0,1,.017,4.143Z" transform="translate(-28.345 -35.533)" fill="#ff931e"/>
  <path id="Path_37752" data-name="Path 37752" d="M30.994,69.276a73.2,73.2,0,0,1-18.144-17.1A68,68,0,0,1,3.837,35.152,60.932,60.932,0,0,1,0,16.445v-.758L12.255,0H50.849L63.1,15.688v.758a60.7,60.7,0,0,1-3.837,18.707,67.987,67.987,0,0,1-9.009,17.019,72.959,72.959,0,0,1-18.147,17.1l-.557.364ZM4.4,17.156v.108a60.1,60.1,0,0,0,3.575,16.5,63.649,63.649,0,0,0,23.409,30.5l.163.117.163-.117A63.631,63.631,0,0,0,55.149,33.66a59.687,59.687,0,0,0,3.543-16.4v-.108L48.719,4.371H14.388Z" fill="#4d4d4d"/>
  <path id="Path_37753" data-name="Path 37753" d="M290.155,63.847a8.33,8.33,0,0,1,4.3,3.205,11.2,11.2,0,0,1,1.8,4.079,19.54,19.54,0,0,1,.481,4.181,16.789,16.789,0,0,1-2.025,8.537,9.138,9.138,0,0,1-8.476,4.712H275.35V63.3h10.892A13.4,13.4,0,0,1,290.155,63.847Zm-9.68,3.84v16.5h4.875a5.266,5.266,0,0,0,5.219-3.686,12.962,12.962,0,0,0,.807-4.817,11.847,11.847,0,0,0-1.209-5.924Q288.957,67.7,285.35,67.7Z" transform="translate(-195.119 -44.854)" fill="#ff931e"/>
  <path id="Path_37754" data-name="Path 37754" d="M366.193,67.278H361.24V62.77h4.953Zm-4.953,2.229h4.953v18.68H361.24Z" transform="translate(-255.982 -44.48)" fill="#4d4d4d"/>
  <path id="Path_37755" data-name="Path 37755" d="M400.931,84.791a5.88,5.88,0,0,1,2.876,2.71V84.809h4.767v17.725a9.918,9.918,0,0,1-1.218,5.452q-2.1,3.156-8.022,3.156a10.931,10.931,0,0,1-5.848-1.407,5.182,5.182,0,0,1-2.5-4.2H396.3a2.191,2.191,0,0,0,.67,1.233,4.118,4.118,0,0,0,2.657.67q2.64,0,3.531-1.766a8.939,8.939,0,0,0,.583-3.805v-1.2a5.959,5.959,0,0,1-1.509,1.8,6.069,6.069,0,0,1-3.788,1.113,7.167,7.167,0,0,1-5.752-2.529,10.226,10.226,0,0,1-2.15-6.847,11.508,11.508,0,0,1,2.072-6.993,6.878,6.878,0,0,1,5.871-2.838A6.41,6.41,0,0,1,400.931,84.791Zm1.664,13.4a5.953,5.953,0,0,0,1.166-4.123,6.33,6.33,0,0,0-1.116-4.044,3.651,3.651,0,0,0-2.987-1.4,3.533,3.533,0,0,0-3.532,2.418,8.61,8.61,0,0,0-.5,3.173,7.254,7.254,0,0,0,.545,2.9,3.557,3.557,0,0,0,3.552,2.366,3.747,3.747,0,0,0,2.87-1.294Z" transform="translate(-276.745 -59.782)" fill="#4d4d4d"/>
  <path id="Path_37756" data-name="Path 37756" d="M473.263,67.278H468.31V62.77h4.953Zm-4.953,2.229h4.953v18.68H468.31Z" transform="translate(-331.854 -44.48)" fill="#4d4d4d"/>
  <path id="Path_37757" data-name="Path 37757" d="M517.705,63.846a8.339,8.339,0,0,1,4.307,3.205,11.146,11.146,0,0,1,1.8,4.079,19.536,19.536,0,0,1,.481,4.181,16.808,16.808,0,0,1-2.022,8.537,9.122,9.122,0,0,1-8.476,4.712H502.9V63.3h10.895A13.369,13.369,0,0,1,517.705,63.846Zm-9.68,3.84v16.5H512.9a5.266,5.266,0,0,0,5.219-3.686,12.96,12.96,0,0,0,.807-4.817,11.847,11.847,0,0,0-1.209-5.924Q516.51,67.7,512.9,67.7Z" transform="translate(-356.365 -44.854)" fill="#4d4d4d"/>
  <path id="Path_37758" data-name="Path 37758" d="M601.306,100.857q-2.369,2.914-7.183,2.914t-7.182-2.914a11.574,11.574,0,0,1,0-14.024q2.366-2.963,7.182-2.963t7.183,2.952a10.9,10.9,0,0,1,2.366,6.993A10.74,10.74,0,0,1,601.306,100.857Zm-3.91-2.7a7.146,7.146,0,0,0,1.166-4.333,6.84,6.84,0,0,0-1.166-4.321,3.841,3.841,0,0,0-3.278-1.518,3.9,3.9,0,0,0-3.3,1.518,8.615,8.615,0,0,0,0,8.654,4.331,4.331,0,0,0,6.591,0Z" transform="translate(-414.24 -59.432)" fill="#4d4d4d"/>
  <path id="Path_37759" data-name="Path 37759" d="M670.762,85.061a7.623,7.623,0,0,1,3.223,2.765,9.207,9.207,0,0,1,1.486,3.864,23.563,23.563,0,0,1,.163,3.706h-13.6a4.475,4.475,0,0,0,1.955,3.942,4.953,4.953,0,0,0,2.692.705A3.788,3.788,0,0,0,670.4,97.9h4.988a6.072,6.072,0,0,1-1.809,3.377A9.081,9.081,0,0,1,666.552,104a10.2,10.2,0,0,1-6.582-2.3q-2.85-2.3-2.85-7.483,0-4.854,2.573-7.445a9.006,9.006,0,0,1,6.681-2.59A10.65,10.65,0,0,1,670.762,85.061Zm-7.308,4.222a5.075,5.075,0,0,0-1.3,2.89h8.418a4.065,4.065,0,0,0-1.3-2.952,4.269,4.269,0,0,0-2.9-1.011A3.869,3.869,0,0,0,663.455,89.283Z" transform="translate(-465.649 -59.656)" fill="#4d4d4d"/>
</svg>
